<svg width="123" height="123" viewBox="0 0 123 123" fill="none" xmlns="http://www.w3.org/2000/svg">
<path opacity="0.2" d="M98.0156 80.7187C100.01 80.7205 101.979 80.279 103.781 79.4263V99.9375C103.781 100.957 103.376 101.935 102.655 102.655C101.935 103.376 100.957 103.781 99.9375 103.781H30.75C29.7306 103.781 28.7529 103.376 28.032 102.655C27.3112 101.935 26.9062 100.957 26.9062 99.9375V79.4263C24.8557 80.3964 22.5932 80.8324 20.329 80.6935C18.0649 80.5546 15.8726 79.8455 13.956 78.632C12.0394 77.4186 10.4608 75.7402 9.36691 73.7529C8.27304 71.7656 7.69943 69.534 7.69943 67.2656C7.69943 64.9972 8.27304 62.7656 9.36691 60.7783C10.4608 58.791 12.0394 57.1126 13.956 55.8992C15.8726 54.6857 18.0649 53.9766 20.329 53.8377C22.5932 53.6988 24.8557 54.1348 26.9062 55.1049V34.5937C26.9062 33.5743 27.3112 32.5966 28.032 31.8758C28.7529 31.1549 29.7306 30.75 30.75 30.75H53.1831C52.2118 28.6994 51.775 26.4366 51.9132 24.1719C52.0514 21.9072 52.7601 19.7142 53.9734 17.797C55.1867 15.8798 56.8652 14.3005 58.8528 13.2062C60.8404 12.1119 63.0724 11.5381 65.3413 11.5381C67.6102 11.5381 69.8423 12.1119 71.8299 13.2062C73.8174 14.3005 75.4959 15.8798 76.7093 17.797C77.9226 19.7142 78.6313 21.9072 78.7695 24.1719C78.9077 26.4366 78.4708 28.6994 77.4996 30.75H99.9375C100.957 30.75 101.935 31.1549 102.655 31.8758C103.376 32.5966 103.781 33.5743 103.781 34.5937V55.1049C101.958 54.2424 99.9648 53.8008 97.9482 53.8127C95.9315 53.8246 93.9434 54.2897 92.1308 55.1737C90.3182 56.0576 88.7275 57.3378 87.4763 58.9194C86.2252 60.5011 85.3457 62.3438 84.9028 64.3112C84.46 66.2787 84.4651 68.3205 84.9178 70.2857C85.3705 72.2509 86.2593 74.0892 87.5183 75.6645C88.7773 77.2399 90.3744 78.5121 92.1915 79.3869C94.0085 80.2618 95.9989 80.7169 98.0156 80.7187Z" fill="#8AA5FF"/>
<path d="M105.833 76.1736C105.285 75.8279 104.658 75.6264 104.011 75.5877C103.365 75.5491 102.719 75.6746 102.133 75.9526C100.669 76.6452 99.0526 76.9563 97.4355 76.857C95.8183 76.7576 94.2526 76.2509 92.8838 75.3841C91.515 74.5173 90.3876 73.3185 89.6064 71.8991C88.8252 70.4797 88.4155 68.8858 88.4155 67.2657C88.4155 65.6455 88.8252 64.0516 89.6064 62.6322C90.3876 61.2129 91.515 60.014 92.8838 59.1472C94.2526 58.2804 95.8183 57.7738 97.4355 57.6744C99.0526 57.575 100.669 57.8861 102.133 58.5788C102.719 58.8569 103.366 58.9822 104.013 58.943C104.661 58.9038 105.288 58.7014 105.836 58.3547C106.384 58.008 106.836 57.5282 107.148 56.9599C107.461 56.3917 107.625 55.7536 107.625 55.105V34.5938C107.625 32.555 106.815 30.5996 105.373 29.1579C103.932 27.7162 101.976 26.9063 99.9375 26.9063H82.5349C82.6064 26.2682 82.6417 25.6265 82.6406 24.9844C82.6366 22.6214 82.1505 20.2841 81.212 18.1155C80.2735 15.9469 78.9024 13.9925 77.1825 12.3721C74.8003 10.1349 71.8332 8.61837 68.6246 7.99806C65.4161 7.37775 62.0974 7.67908 59.0531 8.86716C56.0087 10.0552 53.3632 12.0814 51.423 14.7111C49.4828 17.3407 48.3272 20.4662 48.0901 23.7256C48.0163 24.7857 48.0388 25.8503 48.1574 26.9063H30.75C28.7111 26.9063 26.7558 27.7162 25.3141 29.1579C23.8724 30.5996 23.0625 32.555 23.0625 34.5938V50.0745C22.4244 50.003 21.7827 49.9677 21.1406 49.9688C18.7783 49.9726 16.4416 50.4587 14.2738 51.3972C12.1059 52.3357 10.1525 53.707 8.53311 55.4269C6.90215 57.1497 5.6463 59.1921 4.84494 61.4251C4.04357 63.658 3.7141 66.0328 3.87737 68.3996C4.15281 72.567 5.92357 76.495 8.86401 79.461C11.8045 82.427 15.7169 84.2318 19.8818 84.5433C20.9419 84.6172 22.0065 84.5947 23.0625 84.4761V99.9376C23.0625 101.976 23.8724 103.932 25.3141 105.373C26.7558 106.815 28.7111 107.625 30.75 107.625H99.9375C101.976 107.625 103.932 106.815 105.373 105.373C106.815 103.932 107.625 101.976 107.625 99.9376V79.4263C107.625 78.7769 107.461 78.138 107.148 77.5692C106.834 77.0003 106.382 76.5202 105.833 76.1736ZM99.9375 99.9376H30.75V79.4263C30.7502 78.7777 30.5863 78.1396 30.2735 77.5714C29.9607 77.0032 29.5092 76.5234 28.961 76.1767C28.4129 75.8299 27.7859 75.6275 27.1384 75.5884C26.491 75.5492 25.8442 75.6745 25.2582 75.9526C23.7936 76.6452 22.1776 76.9563 20.5605 76.857C18.9434 76.7576 17.3776 76.2509 16.0088 75.3841C14.64 74.5173 13.5126 73.3185 12.7314 71.8991C11.9502 70.4797 11.5405 68.8858 11.5405 67.2657C11.5405 65.6455 11.9502 64.0516 12.7314 62.6322C13.5126 61.2129 14.64 60.014 16.0088 59.1472C17.3776 58.2804 18.9434 57.7738 20.5605 57.6744C22.1776 57.575 23.7936 57.8861 25.2582 58.5788C25.8442 58.8569 26.491 58.9822 27.1384 58.943C27.7859 58.9038 28.4129 58.7014 28.961 58.3547C29.5092 58.008 29.9607 57.5282 30.2735 56.9599C30.5863 56.3917 30.7502 55.7536 30.75 55.105V34.5938H53.1831C53.8317 34.594 54.4698 34.4301 55.038 34.1173C55.6062 33.8045 56.086 33.353 56.4328 32.8048C56.7795 32.2567 56.9819 31.6297 57.0211 30.9823C57.0602 30.3348 56.9349 29.688 56.6569 29.102C55.9642 27.6374 55.6531 26.0214 55.7524 24.4043C55.8518 22.7872 56.3585 21.2214 57.2253 19.8526C58.0921 18.4838 59.2909 17.3564 60.7103 16.5752C62.1297 15.794 63.7236 15.3844 65.3437 15.3844C66.9639 15.3844 68.5578 15.794 69.9772 16.5752C71.3966 17.3564 72.5954 18.4838 73.4622 19.8526C74.329 21.2214 74.8356 22.7872 74.935 24.4043C75.0344 26.0214 74.7233 27.6374 74.0306 29.102C73.7525 29.688 73.6272 30.3348 73.6664 30.9823C73.7056 31.6297 73.908 32.2567 74.2547 32.8048C74.6014 33.353 75.0813 33.8045 75.6495 34.1173C76.2177 34.4301 76.8558 34.594 77.5044 34.5938H99.9375V50.0793C98.8816 49.9583 97.8168 49.9358 96.7568 50.012C92.2832 50.3288 88.1075 52.3708 85.1106 55.7072C82.1137 59.0437 80.5298 63.4137 80.6931 67.8955C80.8564 72.3773 82.7541 76.6205 85.9859 79.73C89.2176 82.8395 93.5308 84.5722 98.0156 84.5626C98.6577 84.5637 99.2994 84.5284 99.9375 84.4568V99.9376Z" fill="#8AA5FF"/>
</svg>
