<svg width="35" height="35" viewBox="0 0 35 35" fill="none" xmlns="http://www.w3.org/2000/svg">
<path d="M30.625 17.8208C30.625 9.81458 24.4125 4.375 17.5 4.375C10.6604 4.375 4.37499 9.69792 4.37499 17.9083C3.49999 18.4042 2.91666 19.3375 2.91666 20.4167V23.3333C2.91666 24.9375 4.22916 26.25 5.83332 26.25H7.29166V17.3542C7.29166 11.7104 11.8562 7.14583 17.5 7.14583C23.1437 7.14583 27.7083 11.7104 27.7083 17.3542V27.7083H16.0417V30.625H27.7083C29.3125 30.625 30.625 29.3125 30.625 27.7083V25.9292C31.4854 25.4771 32.0833 24.5875 32.0833 23.5375V20.1833C32.0833 19.1625 31.4854 18.2729 30.625 17.8208Z" fill="#8AA5FF"/>
<path d="M13.125 20.4167C13.9304 20.4167 14.5833 19.7637 14.5833 18.9583C14.5833 18.1529 13.9304 17.5 13.125 17.5C12.3196 17.5 11.6667 18.1529 11.6667 18.9583C11.6667 19.7637 12.3196 20.4167 13.125 20.4167Z" fill="#8AA5FF"/>
<path d="M21.875 20.4167C22.6804 20.4167 23.3333 19.7637 23.3333 18.9583C23.3333 18.1529 22.6804 17.5 21.875 17.5C21.0696 17.5 20.4167 18.1529 20.4167 18.9583C20.4167 19.7637 21.0696 20.4167 21.875 20.4167Z" fill="#8AA5FF"/>
<path d="M26.25 16.0854C25.55 11.9292 21.9333 8.75 17.5729 8.75C13.1542 8.75 8.4 12.4104 8.77916 18.1562C12.3812 16.6833 15.0937 13.475 15.8667 9.56667C17.7771 13.4021 21.7 16.0417 26.25 16.0854Z" fill="#8AA5FF"/>
</svg>
