<svg width="20" height="20" viewBox="0 0 20 20" fill="none" xmlns="http://www.w3.org/2000/svg">
<path d="M3.08672 11.8365L9.33672 5.58646C9.42382 5.49906 9.52731 5.42971 9.64127 5.3824C9.75522 5.33508 9.8774 5.31072 10.0008 5.31072C10.1242 5.31072 10.2463 5.33508 10.3603 5.3824C10.4743 5.42971 10.5778 5.49906 10.6648 5.58646L16.9148 11.8365C17.091 12.0126 17.1899 12.2515 17.1899 12.5005C17.1899 12.7496 17.091 12.9885 16.9148 13.1646C16.7387 13.3407 16.4999 13.4396 16.2508 13.4396C16.0017 13.4396 15.7628 13.3407 15.5867 13.1646L10 7.57787L4.41329 13.1654C4.23717 13.3415 3.99829 13.4404 3.74922 13.4404C3.50015 13.4404 3.26128 13.3415 3.08516 13.1654C2.90904 12.9892 2.81009 12.7504 2.81009 12.5013C2.81009 12.2522 2.90904 12.0134 3.08516 11.8372L3.08672 11.8365Z" fill="white"/>
</svg>
