<svg width="35" height="38" viewBox="0 0 35 38" fill="none" xmlns="http://www.w3.org/2000/svg">
<path d="M31.7188 16.8125H18.5938V13.5312H19.6875C20.2677 13.5312 20.8241 13.3008 21.2343 12.8905C21.6445 12.4803 21.875 11.9239 21.875 11.3438V6.96875C21.875 6.38859 21.6445 5.83219 21.2343 5.42195C20.8241 5.01172 20.2677 4.78125 19.6875 4.78125H15.3125C14.7323 4.78125 14.1759 5.01172 13.7657 5.42195C13.3555 5.83219 13.125 6.38859 13.125 6.96875V11.3438C13.125 11.9239 13.3555 12.4803 13.7657 12.8905C14.1759 13.3008 14.7323 13.5312 15.3125 13.5312H16.4062V16.8125H3.28125C2.99117 16.8125 2.71297 16.9277 2.50785 17.1329C2.30273 17.338 2.1875 17.6162 2.1875 17.9062C2.1875 18.1963 2.30273 18.4745 2.50785 18.6796C2.71297 18.8848 2.99117 19 3.28125 19H7.65625V23.375H6.5625C5.98234 23.375 5.42594 23.6055 5.0157 24.0157C4.60547 24.4259 4.375 24.9823 4.375 25.5625V29.9375C4.375 30.5177 4.60547 31.0741 5.0157 31.4843C5.42594 31.8945 5.98234 32.125 6.5625 32.125H10.9375C11.5177 32.125 12.0741 31.8945 12.4843 31.4843C12.8945 31.0741 13.125 30.5177 13.125 29.9375V25.5625C13.125 24.9823 12.8945 24.4259 12.4843 24.0157C12.0741 23.6055 11.5177 23.375 10.9375 23.375H9.84375V19H25.1562V23.375H24.0625C23.4823 23.375 22.9259 23.6055 22.5157 24.0157C22.1055 24.4259 21.875 24.9823 21.875 25.5625V29.9375C21.875 30.5177 22.1055 31.0741 22.5157 31.4843C22.9259 31.8945 23.4823 32.125 24.0625 32.125H28.4375C29.0177 32.125 29.5741 31.8945 29.9843 31.4843C30.3945 31.0741 30.625 30.5177 30.625 29.9375V25.5625C30.625 24.9823 30.3945 24.4259 29.9843 24.0157C29.5741 23.6055 29.0177 23.375 28.4375 23.375H27.3438V19H31.7188C32.0088 19 32.287 18.8848 32.4921 18.6796C32.6973 18.4745 32.8125 18.1963 32.8125 17.9062C32.8125 17.6162 32.6973 17.338 32.4921 17.1329C32.287 16.9277 32.0088 16.8125 31.7188 16.8125ZM15.3125 6.96875H19.6875V11.3438H15.3125V6.96875ZM10.9375 29.9375H6.5625V25.5625H10.9375V29.9375ZM28.4375 29.9375H24.0625V25.5625H28.4375V29.9375Z" fill="#8AA5FF"/>
</svg>
