<svg width="18" height="20" viewBox="0 0 18 20" fill="none" xmlns="http://www.w3.org/2000/svg">
<path d="M15.1875 3.8125H2.8125C2.51413 3.8125 2.22798 3.93103 2.017 4.142C1.80603 4.35298 1.6875 4.63913 1.6875 4.9375V15.0625C1.6875 15.3609 1.80603 15.647 2.017 15.858C2.22798 16.069 2.51413 16.1875 2.8125 16.1875H15.1875C15.4859 16.1875 15.772 16.069 15.983 15.858C16.194 15.647 16.3125 15.3609 16.3125 15.0625V4.9375C16.3125 4.63913 16.194 4.35298 15.983 4.142C15.772 3.93103 15.4859 3.8125 15.1875 3.8125ZM14.4605 7.02297L7.71047 13.773C7.65823 13.8253 7.59619 13.8668 7.5279 13.8951C7.45962 13.9234 7.38642 13.9379 7.3125 13.9379C7.23858 13.9379 7.16538 13.9234 7.0971 13.8951C7.02881 13.8668 6.96677 13.8253 6.91453 13.773L4.10203 10.9605C3.99648 10.8549 3.93719 10.7118 3.93719 10.5625C3.93719 10.4132 3.99648 10.2701 4.10203 10.1645C4.20758 10.059 4.35073 9.99969 4.5 9.99969C4.64927 9.99969 4.79242 10.059 4.89797 10.1645L7.3125 12.5798L13.6645 6.22703C13.7701 6.12148 13.9132 6.06219 14.0625 6.06219C14.2118 6.06219 14.3549 6.12148 14.4605 6.22703C14.566 6.33258 14.6253 6.47573 14.6253 6.625C14.6253 6.77427 14.566 6.91742 14.4605 7.02297Z" fill="white"/>
</svg>
