<svg width="25" height="25" viewBox="0 0 25 25" fill="none" xmlns="http://www.w3.org/2000/svg">
<path d="M22.6562 20.3125C22.6562 20.5197 22.5739 20.7184 22.4274 20.8649C22.2809 21.0114 22.0822 21.0938 21.875 21.0938H3.125C2.9178 21.0938 2.71909 21.0114 2.57257 20.8649C2.42606 20.7184 2.34375 20.5197 2.34375 20.3125V4.6875C2.34375 4.4803 2.42606 4.28159 2.57257 4.13507C2.71909 3.98856 2.9178 3.90625 3.125 3.90625C3.3322 3.90625 3.53091 3.98856 3.67743 4.13507C3.82394 4.28159 3.90625 4.4803 3.90625 4.6875V15.3018L8.82227 10.3848C8.89482 10.3121 8.98099 10.2545 9.07583 10.2152C9.17067 10.1759 9.27233 10.1556 9.375 10.1556C9.47767 10.1556 9.57933 10.1759 9.67417 10.2152C9.76901 10.2545 9.85518 10.3121 9.92773 10.3848L12.5 12.958L17.6455 7.8125H15.625C15.4178 7.8125 15.2191 7.73019 15.0726 7.58368C14.9261 7.43716 14.8438 7.23845 14.8438 7.03125C14.8438 6.82405 14.9261 6.62534 15.0726 6.47882C15.2191 6.33231 15.4178 6.25 15.625 6.25H19.5312C19.7385 6.25 19.9372 6.33231 20.0837 6.47882C20.2302 6.62534 20.3125 6.82405 20.3125 7.03125V10.9375C20.3125 11.1447 20.2302 11.3434 20.0837 11.4899C19.9372 11.6364 19.7385 11.7188 19.5312 11.7188C19.324 11.7188 19.1253 11.6364 18.9788 11.4899C18.8323 11.3434 18.75 11.1447 18.75 10.9375V8.91699L13.0527 14.6152C12.9802 14.6879 12.894 14.7455 12.7992 14.7848C12.7043 14.8241 12.6027 14.8444 12.5 14.8444C12.3973 14.8444 12.2957 14.8241 12.2008 14.7848C12.106 14.7455 12.0198 14.6879 11.9473 14.6152L9.375 12.042L3.90625 17.5107V19.5312H21.875C22.0822 19.5312 22.2809 19.6136 22.4274 19.7601C22.5739 19.9066 22.6562 20.1053 22.6562 20.3125Z" fill="#8AA5FF"/>
</svg>
