<svg width="35" height="35" viewBox="0 0 35 35" fill="none" xmlns="http://www.w3.org/2000/svg">
<path d="M26.25 16.0416V18.9583H32.0833V16.0416H26.25ZM23.3333 25.6812C24.7333 26.7166 26.5562 28.0874 28 29.1666C28.5833 28.3937 29.1667 27.6062 29.75 26.8333C28.3062 25.7541 26.4833 24.3833 25.0833 23.3333C24.5 24.1208 23.9167 24.9083 23.3333 25.6812ZM29.75 8.16659C29.1667 7.39367 28.5833 6.60617 28 5.83325C26.5562 6.91242 24.7333 8.28325 23.3333 9.33325C23.9167 10.1062 24.5 10.8937 25.0833 11.6666C26.4833 10.6166 28.3062 9.26034 29.75 8.16659ZM5.83332 13.1249C4.22916 13.1249 2.91666 14.4374 2.91666 16.0416V18.9583C2.91666 20.5624 4.22916 21.8749 5.83332 21.8749H7.29166V27.7083H10.2083V21.8749H11.6667L18.9583 26.2499V8.74992L11.6667 13.1249H5.83332ZM22.6042 17.4999C22.6042 15.5603 21.7583 13.8103 20.4167 12.6145V22.3708C21.7583 21.1895 22.6042 19.4395 22.6042 17.4999Z" fill="#8AA5FF"/>
</svg>
