<svg width="16" height="16" viewBox="0 0 16 16" fill="none" xmlns="http://www.w3.org/2000/svg">
<path d="M1.5 8.00003C1.50132 6.80697 1.97585 5.66314 2.81948 4.81952C3.6631 3.97589 4.80693 3.50136 6 3.50003H12.7931L12.1462 2.85378C12.0524 2.75996 11.9997 2.63272 11.9997 2.50003C11.9997 2.36735 12.0524 2.2401 12.1462 2.14628C12.2401 2.05246 12.3673 1.99976 12.5 1.99976C12.6327 1.99976 12.7599 2.05246 12.8537 2.14628L14.3537 3.64628C14.4002 3.69272 14.4371 3.74786 14.4623 3.80856C14.4874 3.86926 14.5004 3.93433 14.5004 4.00003C14.5004 4.06574 14.4874 4.13081 14.4623 4.1915C14.4371 4.2522 14.4002 4.30735 14.3537 4.35378L12.8537 5.85378C12.7599 5.9476 12.6327 6.00031 12.5 6.00031C12.3673 6.00031 12.2401 5.9476 12.1462 5.85378C12.0524 5.75996 11.9997 5.63272 11.9997 5.50003C11.9997 5.36735 12.0524 5.2401 12.1462 5.14628L12.7931 4.50003H6C5.07204 4.50103 4.18238 4.87009 3.52622 5.52626C2.87006 6.18242 2.50099 7.07208 2.5 8.00003C2.5 8.13264 2.44732 8.25982 2.35355 8.35359C2.25978 8.44736 2.1326 8.50003 2 8.50003C1.86739 8.50003 1.74021 8.44736 1.64644 8.35359C1.55267 8.25982 1.5 8.13264 1.5 8.00003ZM14 7.50003C13.8674 7.50003 13.7402 7.55271 13.6464 7.64648C13.5527 7.74025 13.5 7.86743 13.5 8.00003C13.499 8.92799 13.1299 9.81765 12.4738 10.4738C11.8176 11.13 10.9279 11.499 10 11.5H3.20687L3.85375 10.8538C3.9002 10.8073 3.93705 10.7522 3.96219 10.6915C3.98733 10.6308 4.00027 10.5657 4.00027 10.5C4.00027 10.4343 3.98733 10.3693 3.96219 10.3086C3.93705 10.2479 3.9002 10.1927 3.85375 10.1463C3.80729 10.0998 3.75214 10.063 3.69144 10.0378C3.63075 10.0127 3.56569 9.99976 3.5 9.99976C3.4343 9.99976 3.36924 10.0127 3.30855 10.0378C3.24785 10.063 3.1927 10.0998 3.14625 10.1463L1.64625 11.6463C1.59976 11.6927 1.56288 11.7479 1.53772 11.8086C1.51255 11.8693 1.4996 11.9343 1.4996 12C1.4996 12.0657 1.51255 12.1308 1.53772 12.1915C1.56288 12.2522 1.59976 12.3073 1.64625 12.3538L3.14625 13.8538C3.1927 13.9002 3.24785 13.9371 3.30855 13.9622C3.36924 13.9874 3.4343 14.0003 3.5 14.0003C3.56569 14.0003 3.63075 13.9874 3.69144 13.9622C3.75214 13.9371 3.80729 13.9002 3.85375 13.8538C3.9002 13.8073 3.93705 13.7522 3.96219 13.6915C3.98733 13.6308 4.00027 13.5657 4.00027 13.5C4.00027 13.4343 3.98733 13.3693 3.96219 13.3086C3.93705 13.2479 3.9002 13.1927 3.85375 13.1463L3.20687 12.5H10C11.1931 12.4987 12.3369 12.0242 13.1805 11.1806C14.0241 10.3369 14.4987 9.1931 14.5 8.00003C14.5 7.86743 14.4473 7.74025 14.3535 7.64648C14.2598 7.55271 14.1326 7.50003 14 7.50003Z" fill="#A1B8FE"/>
</svg>
