<svg width="22" height="22" viewBox="0 0 22 22" fill="none" xmlns="http://www.w3.org/2000/svg">
<path d="M19.7364 6.6738L8.73639 17.6738C8.67254 17.7377 8.59672 17.7884 8.51326 17.823C8.4298 17.8576 8.34033 17.8754 8.24999 17.8754C8.15964 17.8754 8.07018 17.8576 7.98671 17.823C7.90325 17.7884 7.82743 17.7377 7.76358 17.6738L2.95108 12.8613C2.82208 12.7323 2.7496 12.5573 2.7496 12.3749C2.7496 12.1925 2.82208 12.0175 2.95108 11.8885C3.08008 11.7595 3.25505 11.687 3.43749 11.687C3.61992 11.687 3.79489 11.7595 3.92389 11.8885L8.24999 16.2154L18.7636 5.70099C18.8926 5.57198 19.0676 5.49951 19.25 5.49951C19.4324 5.49951 19.6074 5.57198 19.7364 5.70099C19.8654 5.82999 19.9379 6.00496 19.9379 6.18739C19.9379 6.36983 19.8654 6.5448 19.7364 6.6738Z" fill="white"/>
</svg>
