<svg width="16" height="16" viewBox="0 0 16 16" fill="none" xmlns="http://www.w3.org/2000/svg">
<path d="M14.8335 8.00002C14.8205 7.52993 14.677 7.07271 14.4191 6.67945C14.1612 6.2862 13.7991 5.9724 13.3731 5.77311C13.5346 5.33147 13.5697 4.8535 13.4744 4.39301C13.379 3.93252 13.1571 3.50777 12.8335 3.16656C12.4923 2.84295 12.0675 2.62099 11.607 2.52565C11.1465 2.43032 10.6686 2.46539 10.2269 2.62693C10.0289 2.19999 9.71544 1.83696 9.32191 1.57888C8.92837 1.32081 8.47048 1.17799 8 1.16656C7.53056 1.17878 7.07387 1.32199 6.68153 1.58005C6.28918 1.8381 5.97679 2.20071 5.77964 2.62693C5.33709 2.46453 4.85792 2.42926 4.39637 2.52511C3.93455 2.61966 3.5091 2.8422 3.16728 3.16656C2.8437 3.50779 2.62218 3.93285 2.52783 4.39354C2.43348 4.85424 2.47007 5.33215 2.63346 5.77311C2.20643 5.97167 1.84306 6.28512 1.584 6.6784C1.32494 7.07169 1.1804 7.52929 1.16655 8.00002C1.18089 8.47063 1.32563 8.92802 1.58463 9.32121C1.84364 9.71441 2.20673 10.028 2.63346 10.2269C2.47083 10.6679 2.43457 11.1456 2.52875 11.6061C2.62293 12.0666 2.84383 12.4917 3.16655 12.8335C3.50846 13.1559 3.93319 13.3771 4.39341 13.4724C4.85363 13.5677 5.33126 13.5333 5.7731 13.3731C5.97238 13.7991 6.28618 14.1612 6.67944 14.4191C7.07269 14.677 7.52991 14.8205 8 14.8335C8.47024 14.8214 8.92779 14.6785 9.3212 14.4206C9.71461 14.1627 10.0283 13.8002 10.2269 13.3738C10.6667 13.5474 11.1476 13.5886 11.6105 13.4924C12.0734 13.3962 12.4981 13.1669 12.8324 12.8325C13.1666 12.4982 13.3959 12.0734 13.492 11.6105C13.588 11.1476 13.5467 10.6667 13.3731 10.2269C13.7991 10.0276 14.1612 9.71384 14.4191 9.32059C14.677 8.92733 14.8205 8.47011 14.8335 8.00002ZM7.02691 10.8L4.5331 8.30693L5.47346 7.36002L6.98037 8.86693L10.1804 5.38038L11.16 6.28657L7.02691 10.8Z" fill="#1D9BF0"/>
</svg>
