<svg width="35" height="38" viewBox="0 0 35 38" fill="none" xmlns="http://www.w3.org/2000/svg">
<path d="M33.9063 18.4531C33.9048 17.0043 33.4931 15.5856 32.7189 14.3611C31.9446 13.1365 30.8395 12.1563 29.5313 11.5338V11.3437C29.53 9.93446 29.0751 8.56303 28.2339 7.43237C27.3927 6.3017 26.2098 5.47186 24.8604 5.06565C23.5109 4.65943 22.0665 4.69841 20.741 5.17682C19.4154 5.65523 18.279 6.54766 17.5 7.72206C16.721 6.54766 15.5846 5.65523 14.2591 5.17682C12.9335 4.69841 11.4891 4.65943 10.1396 5.06565C8.79018 5.47186 7.60733 6.3017 6.76612 7.43237C5.92491 8.56303 5.47001 9.93446 5.46875 11.3437V11.5338C4.15945 12.1546 3.0532 13.1342 2.27857 14.3588C1.50394 15.5834 1.09273 17.0027 1.09273 18.4517C1.09273 19.9008 1.50394 21.3201 2.27857 22.5447C3.0532 23.7693 4.15945 24.7489 5.46875 25.3697V25.5625C5.47001 26.9718 5.92491 28.3432 6.76612 29.4739C7.60733 30.6045 8.79018 31.4344 10.1396 31.8406C11.4891 32.2468 12.9335 32.2078 14.2591 31.7294C15.5846 31.251 16.721 30.3586 17.5 29.1842C18.279 30.3586 19.4154 31.251 20.741 31.7294C22.0665 32.2078 23.5109 32.2468 24.8604 31.8406C26.2098 31.4344 27.3927 30.6045 28.2339 29.4739C29.0751 28.3432 29.53 26.9718 29.5313 25.5625V25.3697C30.8392 24.7477 31.9443 23.7679 32.7186 22.5438C33.4928 21.3198 33.9046 19.9015 33.9063 18.4531ZM12.0313 29.9375C10.9525 29.9373 9.91178 29.5386 9.10906 28.8179C8.30634 28.0972 7.7982 27.1053 7.68223 26.0328C8.03593 26.0833 8.39273 26.1088 8.75 26.1094H9.84375C10.1338 26.1094 10.412 25.9941 10.6172 25.789C10.8223 25.5839 10.9375 25.3057 10.9375 25.0156C10.9375 24.7255 10.8223 24.4473 10.6172 24.2422C10.412 24.0371 10.1338 23.9219 9.84375 23.9219H8.75C7.45878 23.9234 6.20866 23.4679 5.22099 22.6362C4.23332 21.8045 3.5718 20.6501 3.35355 19.3775C3.1353 18.1048 3.3744 16.796 4.02852 15.6827C4.68265 14.5694 5.70959 13.7235 6.92754 13.2947C7.14065 13.2193 7.32514 13.0796 7.45563 12.895C7.58613 12.7104 7.65622 12.4899 7.65625 12.2639V11.3437C7.65625 10.1834 8.11719 9.07061 8.93766 8.25014C9.75813 7.42967 10.8709 6.96874 12.0313 6.96874C13.1916 6.96874 14.3044 7.42967 15.1248 8.25014C15.9453 9.07061 16.4063 10.1834 16.4063 11.3437V20.6762C15.2052 19.5959 13.6466 18.9988 12.0313 19C11.7412 19 11.463 19.1152 11.2579 19.3203C11.0527 19.5255 10.9375 19.8037 10.9375 20.0937C10.9375 20.3838 11.0527 20.662 11.2579 20.8671C11.463 21.0723 11.7412 21.1875 12.0313 21.1875C13.1916 21.1875 14.3044 21.6484 15.1248 22.4689C15.9453 23.2894 16.4063 24.4022 16.4063 25.5625C16.4063 26.7228 15.9453 27.8356 15.1248 28.6561C14.3044 29.4765 13.1916 29.9375 12.0313 29.9375ZM26.25 23.9219H25.1563C24.8662 23.9219 24.588 24.0371 24.3829 24.2422C24.1777 24.4473 24.0625 24.7255 24.0625 25.0156C24.0625 25.3057 24.1777 25.5839 24.3829 25.789C24.588 25.9941 24.8662 26.1094 25.1563 26.1094H26.25C26.6073 26.1088 26.9641 26.0833 27.3178 26.0328C27.2269 26.8732 26.8946 27.6692 26.3609 28.3247C25.8272 28.9802 25.1151 29.4671 24.3106 29.7264C23.5061 29.9858 22.6437 30.0066 21.8277 29.7862C21.0116 29.5659 20.2769 29.1139 19.7123 28.4848C19.1477 27.8558 18.7774 27.0767 18.6462 26.2417C18.5149 25.4066 18.6284 24.5515 18.9729 23.7796C19.3173 23.0077 19.878 22.3521 20.5872 21.8921C21.2963 21.4321 22.1235 21.1874 22.9688 21.1875C23.2588 21.1875 23.537 21.0723 23.7422 20.8671C23.9473 20.662 24.0625 20.3838 24.0625 20.0937C24.0625 19.8037 23.9473 19.5255 23.7422 19.3203C23.537 19.1152 23.2588 19 22.9688 19C21.3534 18.9988 19.7948 19.5959 18.5938 20.6762V11.3437C18.5938 10.1834 19.0547 9.07061 19.8752 8.25014C20.6956 7.42967 21.8084 6.96874 22.9688 6.96874C24.1291 6.96874 25.2419 7.42967 26.0623 8.25014C26.8828 9.07061 27.3438 10.1834 27.3438 11.3437V12.2639C27.3438 12.4899 27.4139 12.7104 27.5444 12.895C27.6749 13.0796 27.8594 13.2193 28.0725 13.2947C29.2904 13.7235 30.3174 14.5694 30.9715 15.6827C31.6256 16.796 31.8647 18.1048 31.6465 19.3775C31.4282 20.6501 30.7667 21.8045 29.779 22.6362C28.7913 23.4679 27.5412 23.9234 26.25 23.9219ZM28.4375 16.8125C28.4375 17.1026 28.3223 17.3808 28.1172 17.5859C27.912 17.791 27.6338 17.9062 27.3438 17.9062H26.7969C25.4915 17.9062 24.2396 17.3877 23.3166 16.4647C22.3936 15.5416 21.875 14.2897 21.875 12.9844V12.4375C21.875 12.1474 21.9902 11.8692 22.1954 11.6641C22.4005 11.459 22.6787 11.3437 22.9688 11.3437C23.2588 11.3437 23.537 11.459 23.7422 11.6641C23.9473 11.8692 24.0625 12.1474 24.0625 12.4375V12.9844C24.0625 13.7096 24.3506 14.4051 24.8634 14.9179C25.3762 15.4306 26.0717 15.7187 26.7969 15.7187H27.3438C27.6338 15.7187 27.912 15.834 28.1172 16.0391C28.3223 16.2442 28.4375 16.5224 28.4375 16.8125ZM8.20313 17.9062H7.65625C7.36617 17.9062 7.08797 17.791 6.88286 17.5859C6.67774 17.3808 6.5625 17.1026 6.5625 16.8125C6.5625 16.5224 6.67774 16.2442 6.88286 16.0391C7.08797 15.834 7.36617 15.7187 7.65625 15.7187H8.20313C8.92833 15.7187 9.62383 15.4306 10.1366 14.9179C10.6494 14.4051 10.9375 13.7096 10.9375 12.9844V12.4375C10.9375 12.1474 11.0527 11.8692 11.2579 11.6641C11.463 11.459 11.7412 11.3437 12.0313 11.3437C12.3213 11.3437 12.5995 11.459 12.8047 11.6641C13.0098 11.8692 13.125 12.1474 13.125 12.4375V12.9844C13.125 14.2897 12.6064 15.5416 11.6834 16.4647C10.7604 17.3877 9.50849 17.9062 8.20313 17.9062Z" fill="#8AA5FF"/>
</svg>
