<svg width="25" height="25" viewBox="0 0 25 25" fill="none" xmlns="http://www.w3.org/2000/svg">
<path d="M21.875 12.5004C21.875 12.7076 21.7927 12.9063 21.6462 13.0529C21.4997 13.1994 21.301 13.2817 21.0938 13.2817H12.5C12.2928 13.2817 12.0941 13.1994 11.9476 13.0529C11.8011 12.9063 11.7188 12.7076 11.7188 12.5004C11.7188 12.2932 11.8011 12.0945 11.9476 11.948C12.0941 11.8015 12.2928 11.7192 12.5 11.7192H21.0938C21.301 11.7192 21.4997 11.8015 21.6462 11.948C21.7927 12.0945 21.875 12.2932 21.875 12.5004ZM12.5 7.03168H21.0938C21.301 7.03168 21.4997 6.94937 21.6462 6.80286C21.7927 6.65635 21.875 6.45763 21.875 6.25043C21.875 6.04323 21.7927 5.84452 21.6462 5.69801C21.4997 5.55149 21.301 5.46918 21.0938 5.46918H12.5C12.2928 5.46918 12.0941 5.55149 11.9476 5.69801C11.8011 5.84452 11.7188 6.04323 11.7188 6.25043C11.7188 6.45763 11.8011 6.65635 11.9476 6.80286C12.0941 6.94937 12.2928 7.03168 12.5 7.03168ZM21.0938 17.9692H12.5C12.2928 17.9692 12.0941 18.0515 11.9476 18.198C11.8011 18.3445 11.7188 18.5432 11.7188 18.7504C11.7188 18.9576 11.8011 19.1564 11.9476 19.3029C12.0941 19.4494 12.2928 19.5317 12.5 19.5317H21.0938C21.301 19.5317 21.4997 19.4494 21.6462 19.3029C21.7927 19.1564 21.875 18.9576 21.875 18.7504C21.875 18.5432 21.7927 18.3445 21.6462 18.198C21.4997 18.0515 21.301 17.9692 21.0938 17.9692ZM8.04102 4.1352L5.46876 6.70844L4.45899 5.6977C4.3124 5.55111 4.11357 5.46875 3.90626 5.46875C3.69894 5.46875 3.50012 5.55111 3.35352 5.6977C3.20693 5.84429 3.12457 6.04312 3.12457 6.25043C3.12457 6.45775 3.20693 6.65657 3.35352 6.80317L4.91602 8.36567C4.98858 8.43831 5.07474 8.49593 5.16958 8.53525C5.26443 8.57456 5.36609 8.5948 5.46876 8.5948C5.57143 8.5948 5.67309 8.57456 5.76793 8.53525C5.86277 8.49593 5.94893 8.43831 6.02149 8.36567L9.14649 5.24067C9.29309 5.09407 9.37544 4.89525 9.37544 4.68793C9.37544 4.48062 9.29309 4.28179 9.14649 4.1352C8.9999 3.98861 8.80107 3.90625 8.59376 3.90625C8.38644 3.90625 8.18762 3.98861 8.04102 4.1352ZM8.04102 10.3852L5.46876 12.9584L4.45899 11.9477C4.3124 11.8011 4.11357 11.7188 3.90626 11.7188C3.69894 11.7188 3.50012 11.8011 3.35352 11.9477C3.20693 12.0943 3.12457 12.2931 3.12457 12.5004C3.12457 12.6031 3.14479 12.7047 3.18407 12.7996C3.22336 12.8944 3.28094 12.9806 3.35352 13.0532L4.91602 14.6157C4.98858 14.6883 5.07474 14.7459 5.16958 14.7852C5.26443 14.8246 5.36609 14.8448 5.46876 14.8448C5.57143 14.8448 5.67309 14.8246 5.76793 14.7852C5.86277 14.7459 5.94893 14.6883 6.02149 14.6157L9.14649 11.4907C9.29309 11.3441 9.37544 11.1452 9.37544 10.9379C9.37544 10.7306 9.29309 10.5318 9.14649 10.3852C8.9999 10.2386 8.80107 10.1562 8.59376 10.1562C8.38644 10.1562 8.18762 10.2386 8.04102 10.3852ZM8.04102 16.6352L5.46876 19.2084L4.45899 18.1977C4.38641 18.1251 4.30023 18.0675 4.20539 18.0283C4.11056 17.989 4.00891 17.9688 3.90626 17.9688C3.8036 17.9688 3.70196 17.989 3.60712 18.0283C3.51228 18.0675 3.42611 18.1251 3.35352 18.1977C3.28094 18.2703 3.22336 18.3565 3.18407 18.4513C3.14479 18.5461 3.12457 18.6478 3.12457 18.7504C3.12457 18.8531 3.14479 18.9547 3.18407 19.0496C3.22336 19.1444 3.28094 19.2306 3.35352 19.3032L4.91602 20.8657C4.98858 20.9383 5.07474 20.9959 5.16958 21.0352C5.26443 21.0746 5.36609 21.0948 5.46876 21.0948C5.57143 21.0948 5.67309 21.0746 5.76793 21.0352C5.86277 20.9959 5.94893 20.9383 6.02149 20.8657L9.14649 17.7407C9.29309 17.5941 9.37544 17.3953 9.37544 17.1879C9.37544 16.9806 9.29309 16.7818 9.14649 16.6352C8.9999 16.4886 8.80107 16.4062 8.59376 16.4062C8.38644 16.4062 8.18762 16.4886 8.04102 16.6352Z" fill="#8AA5FF"/>
</svg>
