<svg width="35" height="35" viewBox="0 0 35 35" fill="none" xmlns="http://www.w3.org/2000/svg">
<path d="M17.5 2.91675C9.44999 2.91675 2.91666 9.45008 2.91666 17.5001C2.91666 25.5501 9.44999 32.0834 17.5 32.0834C25.55 32.0834 32.0833 25.5501 32.0833 17.5001C32.0833 9.45008 25.55 2.91675 17.5 2.91675ZM19.5562 26.3813V29.1667H15.6625V26.3522C13.1687 25.8272 11.0542 24.223 10.8937 21.3938H13.7521C13.8979 22.9251 14.9479 24.1209 17.6167 24.1209C20.475 24.1209 21.1167 22.6917 21.1167 21.8022C21.1167 20.5917 20.475 19.4542 17.2229 18.6813C13.6062 17.8063 11.1271 16.3188 11.1271 13.3292C11.1271 10.8209 13.1542 9.18758 15.6625 8.648V5.83341H19.5562V8.67716C22.2687 9.33341 23.625 11.3897 23.7125 13.6209H20.8542C20.7812 12.0022 19.9208 10.8938 17.6167 10.8938C15.4292 10.8938 14.1167 11.8855 14.1167 13.2855C14.1167 14.5105 15.0646 15.3126 18.0104 16.0709C20.9562 16.8292 24.1062 18.098 24.1062 21.773C24.0917 24.4417 22.0937 25.9001 19.5562 26.3813Z" fill="#8AA5FF"/>
</svg>
