<svg width="35" height="35" viewBox="0 0 35 35" fill="none" xmlns="http://www.w3.org/2000/svg">
<path d="M30.625 11.6667C28.5104 11.6667 27.3292 13.7667 27.8104 15.3272L22.6333 20.5188C22.1958 20.3876 21.5542 20.3876 21.1167 20.5188L17.3979 16.8001C17.8938 15.2397 16.7125 13.1251 14.5833 13.1251C12.4688 13.1251 11.2729 15.2251 11.7687 16.8001L5.11875 23.4355C3.55833 22.9542 1.45833 24.1355 1.45833 26.2501C1.45833 27.8542 2.77083 29.1667 4.375 29.1667C6.48958 29.1667 7.67083 27.0667 7.18958 25.5063L13.825 18.8563C14.2625 18.9876 14.9042 18.9876 15.3417 18.8563L19.0604 22.5751C18.5646 24.1355 19.7458 26.2501 21.875 26.2501C23.9896 26.2501 25.1854 24.1501 24.6896 22.5751L29.8813 17.398C31.4417 17.8792 33.5417 16.698 33.5417 14.5834C33.5417 12.9792 32.2292 11.6667 30.625 11.6667Z" fill="#8AA5FF"/>
<path d="M21.875 13.125L23.2458 10.1062L26.25 8.75L23.2458 7.39375L21.875 4.375L20.5333 7.39375L17.5 8.75L20.5333 10.1062L21.875 13.125ZM5.10417 16.0417L5.83333 13.125L8.75 12.3958L5.83333 11.6667L5.10417 8.75L4.375 11.6667L1.45833 12.3958L4.375 13.125L5.10417 16.0417Z" fill="#8AA5FF"/>
</svg>
