<svg width="25" height="25" viewBox="0 0 25 25" fill="none" xmlns="http://www.w3.org/2000/svg">
<path d="M23.9062 14.6876C23.8242 14.7492 23.7308 14.794 23.6314 14.8194C23.532 14.8449 23.4286 14.8505 23.327 14.836C23.2254 14.8215 23.1277 14.7871 23.0395 14.7349C22.9512 14.6826 22.8741 14.6135 22.8125 14.5314C22.3416 13.8984 21.7287 13.3849 21.0231 13.0321C20.3175 12.6793 19.5389 12.4971 18.75 12.5001C18.5964 12.5001 18.4462 12.4548 18.3181 12.3699C18.1901 12.2849 18.09 12.1641 18.0303 12.0226C17.9897 11.9265 17.9688 11.8232 17.9688 11.7189C17.9688 11.6146 17.9897 11.5113 18.0303 11.4152C18.09 11.2736 18.1901 11.1528 18.3181 11.0679C18.4462 10.983 18.5964 10.9376 18.75 10.9376C19.1884 10.9376 19.6179 10.8146 19.9899 10.5827C20.3618 10.3508 20.6613 10.0192 20.8543 9.62556C21.0472 9.23197 21.1259 8.79214 21.0814 8.35605C21.037 7.91996 20.8711 7.50509 20.6026 7.15855C20.3342 6.81202 19.9739 6.54771 19.5628 6.39566C19.1517 6.2436 18.7061 6.20989 18.2768 6.29836C17.8475 6.38683 17.4515 6.59392 17.134 6.89612C16.8165 7.19832 16.5901 7.58351 16.4805 8.00795C16.4548 8.10733 16.4098 8.2007 16.3481 8.28271C16.2864 8.36471 16.2091 8.43376 16.1207 8.4859C16.0323 8.53805 15.9345 8.57226 15.8328 8.5866C15.7312 8.60094 15.6277 8.59512 15.5283 8.56947C15.4289 8.54382 15.3356 8.49885 15.2536 8.43712C15.1715 8.37538 15.1025 8.29811 15.0504 8.20969C14.9982 8.12128 14.964 8.02346 14.9497 7.92182C14.9353 7.82018 14.9411 7.71671 14.9668 7.61732C15.1189 7.02876 15.4063 6.48382 15.806 6.02587C16.2058 5.56791 16.7069 5.20958 17.2696 4.97938C17.8322 4.74918 18.4408 4.65348 19.0469 4.69987C19.653 4.74627 20.24 4.93348 20.761 5.24663C21.282 5.55977 21.7228 5.9902 22.0482 6.50367C22.3736 7.01713 22.5747 7.59946 22.6355 8.20431C22.6962 8.80916 22.615 9.41985 22.3982 9.98778C22.1814 10.5557 21.8351 11.0652 21.3867 11.4757C22.449 11.9357 23.3725 12.6656 24.0654 13.5929C24.127 13.6752 24.1717 13.7688 24.197 13.8684C24.2223 13.968 24.2278 14.0716 24.213 14.1733C24.1982 14.275 24.1635 14.3728 24.1108 14.461C24.0582 14.5493 23.9887 14.6263 23.9062 14.6876ZM18.6445 20.7033C18.7011 20.7922 18.739 20.8916 18.7561 20.9956C18.7732 21.0996 18.7691 21.2059 18.744 21.3082C18.719 21.4106 18.6735 21.5068 18.6102 21.5911C18.547 21.6754 18.4674 21.746 18.3762 21.7988C18.285 21.8515 18.184 21.8852 18.0794 21.8979C17.9748 21.9106 17.8687 21.902 17.7675 21.8727C17.6664 21.8433 17.5721 21.7938 17.4906 21.7271C17.409 21.6604 17.3418 21.5779 17.293 21.4845C16.8008 20.6512 16.0999 19.9606 15.2594 19.4808C14.4189 19.001 13.4678 18.7487 12.5 18.7487C11.5322 18.7487 10.5811 19.001 9.7406 19.4808C8.90008 19.9606 8.19917 20.6512 7.70703 21.4845C7.65819 21.5779 7.59097 21.6604 7.50941 21.7271C7.42785 21.7938 7.33364 21.8433 7.23245 21.8727C7.13126 21.902 7.02517 21.9106 6.92057 21.8979C6.81597 21.8852 6.71503 21.8515 6.6238 21.7988C6.53258 21.746 6.45297 21.6754 6.38975 21.5911C6.32654 21.5068 6.28103 21.4106 6.25596 21.3082C6.23089 21.2059 6.22678 21.0996 6.24388 20.9956C6.26099 20.8916 6.29894 20.7922 6.35547 20.7033C7.11289 19.4019 8.26777 18.3777 9.65039 17.7814C8.87239 17.1857 8.30061 16.3612 8.01543 15.4238C7.73025 14.4864 7.74599 13.4831 8.06046 12.5551C8.37493 11.6271 8.97231 10.821 9.76862 10.25C10.5649 9.67906 11.5202 9.372 12.5 9.372C13.4798 9.372 14.4351 9.67906 15.2314 10.25C16.0277 10.821 16.6251 11.6271 16.9395 12.5551C17.254 13.4831 17.2698 14.4864 16.9846 15.4238C16.6994 16.3612 16.1276 17.1857 15.3496 17.7814C16.7322 18.3777 17.8871 19.4019 18.6445 20.7033ZM12.5 17.1876C13.1181 17.1876 13.7223 17.0044 14.2362 16.661C14.7501 16.3176 15.1506 15.8295 15.3871 15.2585C15.6236 14.6875 15.6855 14.0592 15.565 13.453C15.4444 12.8468 15.1467 12.29 14.7097 11.8529C14.2727 11.4159 13.7158 11.1183 13.1097 10.9977C12.5035 10.8771 11.8751 10.939 11.3041 11.1755C10.7331 11.412 10.245 11.8126 9.90166 12.3265C9.55828 12.8404 9.375 13.4446 9.375 14.0626C9.375 14.8914 9.70424 15.6863 10.2903 16.2723C10.8763 16.8584 11.6712 17.1876 12.5 17.1876ZM7.03125 11.7189C7.03125 11.5117 6.94894 11.313 6.80243 11.1665C6.65591 11.0199 6.4572 10.9376 6.25 10.9376C5.81165 10.9376 5.38209 10.8146 5.01012 10.5827C4.63816 10.3508 4.33869 10.0192 4.14573 9.62556C3.95278 9.23197 3.87407 8.79214 3.91855 8.35605C3.96303 7.91996 4.12892 7.50509 4.39737 7.15855C4.66582 6.81202 5.02607 6.54771 5.43721 6.39566C5.84834 6.2436 6.29388 6.20989 6.72321 6.29836C7.15254 6.38683 7.54846 6.59392 7.86599 6.89612C8.18352 7.19832 8.40994 7.58351 8.51953 8.00795C8.57133 8.20867 8.70075 8.3806 8.87931 8.4859C9.05787 8.59121 9.27095 8.62127 9.47168 8.56947C9.6724 8.51767 9.84433 8.38825 9.94964 8.20969C10.0549 8.03113 10.085 7.81805 10.0332 7.61732C9.8811 7.02876 9.59373 6.48382 9.19396 6.02587C8.79418 5.56791 8.29305 5.20958 7.73042 4.97938C7.1678 4.74918 6.55921 4.65348 5.95308 4.69987C5.34696 4.74627 4.76003 4.93348 4.23899 5.24663C3.71795 5.55977 3.27719 5.9902 2.95178 6.50367C2.62636 7.01713 2.42528 7.59946 2.36452 8.20431C2.30376 8.80916 2.38501 9.41985 2.6018 9.98778C2.81859 10.5557 3.16493 11.0652 3.61328 11.4757C2.55203 11.9361 1.6296 12.666 0.937499 13.5929C0.813049 13.7587 0.759544 13.9671 0.788755 14.1723C0.817966 14.3775 0.9275 14.5627 1.09326 14.6871C1.25902 14.8116 1.46743 14.8651 1.67264 14.8359C1.87785 14.8067 2.06305 14.6971 2.1875 14.5314C2.65838 13.8984 3.2713 13.3849 3.97691 13.0321C4.68252 12.6793 5.46111 12.4971 6.25 12.5001C6.4572 12.5001 6.65591 12.4178 6.80243 12.2713C6.94894 12.1248 7.03125 11.9261 7.03125 11.7189Z" fill="#8AA5FF"/>
</svg>
