<svg width="16" height="16" viewBox="0 0 16 16" fill="none" xmlns="http://www.w3.org/2000/svg">
<path d="M13.3538 10.3538C13.3073 10.4003 13.2522 10.4371 13.1915 10.4623C13.1308 10.4875 13.0657 10.5004 13 10.5004C12.9343 10.5004 12.8692 10.4875 12.8085 10.4623C12.7478 10.4371 12.6927 10.4003 12.6463 10.3538L8 5.7069L3.35375 10.3538C3.25993 10.4476 3.13269 10.5003 3 10.5003C2.86732 10.5003 2.74007 10.4476 2.64625 10.3538C2.55243 10.26 2.49973 10.1327 2.49973 10C2.49973 9.86735 2.55243 9.7401 2.64625 9.64628L7.64625 4.64628C7.69269 4.59979 7.74783 4.56291 7.80853 4.53775C7.86923 4.51259 7.9343 4.49963 8 4.49963C8.06571 4.49963 8.13077 4.51259 8.19147 4.53775C8.25217 4.56291 8.30732 4.59979 8.35375 4.64628L13.3538 9.64628C13.4002 9.69271 13.4371 9.74786 13.4623 9.80856C13.4874 9.86926 13.5004 9.93432 13.5004 10C13.5004 10.0657 13.4874 10.1308 13.4623 10.1915C13.4371 10.2522 13.4002 10.3073 13.3538 10.3538Z" fill="#A1B8FE"/>
</svg>
