<svg width="35" height="35" viewBox="0 0 35 35" fill="none" xmlns="http://www.w3.org/2000/svg">
<path d="M17.5 11.6666C19.1108 11.6666 20.4167 10.3607 20.4167 8.74992C20.4167 7.13909 19.1108 5.83325 17.5 5.83325C15.8892 5.83325 14.5833 7.13909 14.5833 8.74992C14.5833 10.3607 15.8892 11.6666 17.5 11.6666Z" fill="#8AA5FF"/>
<path d="M30.625 23.3333V20.4167C27.3583 20.4167 24.5583 19.0167 22.4583 16.5083L20.5042 14.175C19.95 13.5042 19.1333 13.125 18.2729 13.125H16.7417C15.8812 13.125 15.0646 13.5042 14.5104 14.175L12.5562 16.5083C10.4417 19.0167 7.64167 20.4167 4.375 20.4167V23.3333C8.41458 23.3333 11.9438 21.6271 14.5833 18.5938V21.875L8.925 24.1354C7.94792 24.5292 7.29167 25.4917 7.29167 26.5563C7.29167 28 8.45833 29.1667 9.90208 29.1667H13.125V28.4375C13.125 26.425 14.7583 24.7917 16.7708 24.7917H21.1458C21.5542 24.7917 21.875 25.1125 21.875 25.5208C21.875 25.9292 21.5542 26.25 21.1458 26.25H16.7708C15.5604 26.25 14.5833 27.2271 14.5833 28.4375V29.1667H25.0979C26.5417 29.1667 27.7083 28 27.7083 26.5563C27.7083 25.4917 27.0521 24.5292 26.075 24.1354L20.4167 21.875V18.5938C23.0562 21.6271 26.5854 23.3333 30.625 23.3333Z" fill="#8AA5FF"/>
</svg>
