<svg width="25" height="25" viewBox="0 0 25 25" fill="none" xmlns="http://www.w3.org/2000/svg">
<path d="M20.9717 20.6748L14.8584 11.0674L20.8906 4.43164C21.0271 4.27786 21.0974 4.07649 21.0863 3.87121C21.0753 3.66593 20.9838 3.47328 20.8316 3.33502C20.6795 3.19675 20.479 3.12403 20.2736 3.13261C20.0682 3.14119 19.8745 3.23039 19.7344 3.38086L13.9883 9.70117L10.0342 3.4873C9.96368 3.37632 9.8663 3.28493 9.75108 3.2216C9.63585 3.15827 9.5065 3.12504 9.37501 3.125H4.68751C4.54744 3.12493 4.40992 3.16253 4.28936 3.23385C4.1688 3.30517 4.06963 3.40759 4.00224 3.53039C3.93485 3.65319 3.90171 3.79185 3.9063 3.93186C3.91089 4.07186 3.95304 4.20805 4.02833 4.32617L10.1416 13.9326L4.10939 20.5732C4.03895 20.6489 3.98422 20.7378 3.94839 20.8348C3.91256 20.9318 3.89633 21.0349 3.90064 21.1382C3.90496 21.2415 3.92973 21.3429 3.97353 21.4365C4.01733 21.5302 4.07928 21.6142 4.15579 21.6837C4.23229 21.7533 4.32184 21.8069 4.41924 21.8416C4.51664 21.8763 4.61995 21.8912 4.72318 21.8857C4.82642 21.8801 4.92752 21.8541 5.02064 21.8092C5.11375 21.7643 5.19703 21.7014 5.26564 21.624L11.0117 15.3037L14.9658 21.5176C15.0369 21.6277 15.1346 21.7181 15.2497 21.7805C15.3649 21.843 15.494 21.8755 15.625 21.875H20.3125C20.4524 21.875 20.5898 21.8373 20.7102 21.7661C20.8306 21.6948 20.9297 21.5925 20.997 21.4698C21.0644 21.3472 21.0976 21.2087 21.0931 21.0689C21.0887 20.929 21.0467 20.7929 20.9717 20.6748ZM16.0537 20.3125L6.11036 4.6875H8.9424L18.8897 20.3125H16.0537Z" fill="#E6ECFF" fill-opacity="0.7"/>
</svg>
