<svg width="35" height="35" viewBox="0 0 35 35" fill="none" xmlns="http://www.w3.org/2000/svg">
<path d="M17.5 5.8335V1.4585L11.6667 7.29183L17.5 13.1252V8.75016C22.3271 8.75016 26.25 12.6731 26.25 17.5002C26.25 18.9731 25.8854 20.3731 25.2292 21.5835L27.3583 23.7127C28.4958 21.9189 29.1667 19.7897 29.1667 17.5002C29.1667 11.0543 23.9458 5.8335 17.5 5.8335ZM17.5 26.2502C12.6729 26.2502 8.75001 22.3272 8.75001 17.5002C8.75001 16.0272 9.11459 14.6272 9.77084 13.4168L7.64168 11.2877C6.50418 13.0814 5.83334 15.2106 5.83334 17.5002C5.83334 23.946 11.0542 29.1668 17.5 29.1668V33.5418L23.3333 27.7085L17.5 21.8752V26.2502Z" fill="#8AA5FF"/>
</svg>
