<svg width="35" height="38" viewBox="0 0 35 38" fill="none" xmlns="http://www.w3.org/2000/svg">
<path d="M24.0625 33.2188C24.0625 33.5089 23.9473 33.7871 23.7422 33.9922C23.537 34.1973 23.2588 34.3126 22.9688 34.3126H12.0313C11.7412 34.3126 11.463 34.1973 11.2579 33.9922C11.0527 33.7871 10.9375 33.5089 10.9375 33.2188C10.9375 32.9287 11.0527 32.6505 11.2579 32.4454C11.463 32.2403 11.7412 32.1251 12.0313 32.1251H22.9688C23.2588 32.1251 23.537 32.2403 23.7422 32.4454C23.9473 32.6505 24.0625 32.9287 24.0625 33.2188ZM29.5313 15.7188C29.536 17.5422 29.1241 19.3425 28.327 20.9824C27.5299 22.6223 26.3687 24.0584 24.932 25.1811C24.6634 25.387 24.4454 25.6516 24.2947 25.9547C24.144 26.2578 24.0646 26.5913 24.0625 26.9298V27.7501C24.0625 28.3302 23.832 28.8866 23.4218 29.2969C23.0116 29.7071 22.4552 29.9376 21.875 29.9376H13.125C12.5448 29.9376 11.9884 29.7071 11.5782 29.2969C11.168 28.8866 10.9375 28.3302 10.9375 27.7501V26.9298C10.9373 26.5953 10.8604 26.2654 10.7127 25.9654C10.5651 25.6653 10.3506 25.4031 10.0857 25.1989C8.65284 24.0829 7.49254 22.6557 6.69266 21.0251C5.89277 19.3945 5.47424 17.6034 5.46875 15.7872C5.43321 9.2698 10.6996 3.8448 17.2102 3.68757C18.8143 3.64892 20.4101 3.93155 21.9034 4.51885C23.3967 5.10614 24.7574 5.98623 25.9055 7.10731C27.0536 8.22838 27.9658 9.5678 28.5885 11.0467C29.2112 12.5256 29.5317 14.1142 29.5313 15.7188ZM27.3438 15.7188C27.3441 14.4059 27.0819 13.1061 26.5724 11.896C26.0628 10.6859 25.3164 9.59002 24.377 8.67277C23.4376 7.75551 22.3241 7.03546 21.1023 6.55499C19.8804 6.07452 18.5747 5.84334 17.2621 5.87507C11.9301 6.00086 7.62754 10.4401 7.65625 15.7721C7.66115 17.2577 8.00391 18.7227 8.65861 20.0563C9.31331 21.3898 10.2628 22.557 11.4352 23.4694C11.9621 23.8791 12.3884 24.4039 12.6813 25.0037C12.9742 25.6034 13.126 26.2623 13.125 26.9298V27.7501H16.4063V21.6401L12.3512 17.5864C12.1459 17.3812 12.0306 17.1028 12.0306 16.8126C12.0306 16.5223 12.1459 16.244 12.3512 16.0387C12.5564 15.8335 12.8348 15.7182 13.125 15.7182C13.4152 15.7182 13.6936 15.8335 13.8988 16.0387L17.5 19.6413L21.1012 16.0387C21.2028 15.9371 21.3234 15.8565 21.4562 15.8015C21.589 15.7465 21.7313 15.7182 21.875 15.7182C22.0187 15.7182 22.161 15.7465 22.2938 15.8015C22.4266 15.8565 22.5472 15.9371 22.6488 16.0387C22.7505 16.1404 22.8311 16.261 22.8861 16.3938C22.9411 16.5266 22.9694 16.6689 22.9694 16.8126C22.9694 16.9563 22.9411 17.0986 22.8861 17.2314C22.8311 17.3641 22.7505 17.4848 22.6488 17.5864L18.5938 21.6401V27.7501H21.875V26.9298C21.8762 26.2603 22.0305 25.6 22.3259 24.9993C22.6214 24.3987 23.0503 23.8735 23.5799 23.4639C24.7558 22.545 25.7062 21.3694 26.3585 20.0271C27.0108 18.6848 27.3478 17.2112 27.3438 15.7188Z" fill="#8AA5FF"/>
</svg>
