<svg width="35" height="38" viewBox="0 0 35 38" fill="none" xmlns="http://www.w3.org/2000/svg">
<path d="M17.5 12.4373C16.2021 12.4373 14.9333 12.8221 13.8541 13.5432C12.7749 14.2643 11.9337 15.2893 11.437 16.4884C10.9403 17.6875 10.8104 19.007 11.0636 20.28C11.3168 21.553 11.9418 22.7224 12.8596 23.6401C13.7774 24.5579 14.9467 25.1829 16.2197 25.4362C17.4927 25.6894 18.8122 25.5594 20.0114 25.0627C21.2105 24.566 22.2354 23.7249 22.9565 22.6457C23.6776 21.5665 24.0625 20.2977 24.0625 18.9998C24.0607 17.2598 23.3687 15.5917 22.1384 14.3614C20.9081 13.1311 19.2399 12.4391 17.5 12.4373ZM17.5 23.3748C16.6347 23.3748 15.7888 23.1182 15.0694 22.6374C14.3499 22.1567 13.7892 21.4734 13.458 20.674C13.1269 19.8746 13.0403 18.9949 13.2091 18.1462C13.3779 17.2976 13.7946 16.518 14.4064 15.9062C15.0183 15.2943 15.7978 14.8776 16.6465 14.7088C17.4951 14.54 18.3748 14.6267 19.1742 14.9578C19.9737 15.2889 20.6569 15.8497 21.1377 16.5691C21.6184 17.2886 21.875 18.1345 21.875 18.9998C21.875 20.1601 21.4141 21.2729 20.5936 22.0933C19.7731 22.9138 18.6603 23.3748 17.5 23.3748ZM29.5313 19.2951C29.5367 19.0982 29.5367 18.9013 29.5313 18.7044L31.5711 16.156C31.6781 16.0222 31.7521 15.8651 31.7872 15.6975C31.8224 15.5298 31.8177 15.3563 31.7734 15.1908C31.439 13.9338 30.9388 12.7269 30.2859 11.6019C30.2005 11.4547 30.0818 11.3294 29.9394 11.2362C29.797 11.1429 29.6347 11.0841 29.4656 11.0646L26.2227 10.7037C26.0878 10.5615 25.951 10.4248 25.8125 10.2935L25.4297 7.04234C25.41 6.87309 25.351 6.71079 25.2575 6.56837C25.164 6.42595 25.0385 6.30735 24.891 6.22202C23.7656 5.57035 22.5588 5.07062 21.3021 4.73589C21.1365 4.69186 20.9629 4.68736 20.7953 4.72274C20.6276 4.75813 20.4706 4.83241 20.3369 4.9396L17.7953 6.96851C17.5984 6.96851 17.4016 6.96851 17.2047 6.96851L14.6563 4.93277C14.5224 4.82581 14.3654 4.75177 14.1977 4.71663C14.0301 4.68148 13.8565 4.68621 13.691 4.73042C12.4342 5.06542 11.2274 5.56561 10.1021 6.21792C9.95493 6.30341 9.82969 6.42208 9.73641 6.56449C9.64314 6.7069 9.58439 6.86912 9.56485 7.03823L9.20391 10.2867C9.06172 10.4225 8.925 10.5592 8.79375 10.6968L5.54258 11.0701C5.37334 11.0898 5.21104 11.1487 5.06862 11.2422C4.9262 11.3358 4.80759 11.4613 4.72227 11.6087C4.07059 12.7342 3.57087 13.9409 3.23613 15.1976C3.19211 15.3632 3.1876 15.5368 3.22299 15.7045C3.25837 15.8722 3.33265 16.0292 3.43985 16.1628L5.46875 18.7044C5.46875 18.9013 5.46875 19.0982 5.46875 19.2951L3.43301 21.8435C3.32605 21.9773 3.25202 22.1344 3.21687 22.302C3.18173 22.4697 3.18645 22.6432 3.23067 22.8087C3.56507 24.0657 4.06529 25.2726 4.71817 26.3976C4.80365 26.5448 4.92232 26.6701 5.06473 26.7633C5.20714 26.8566 5.36936 26.9154 5.53848 26.9349L8.78145 27.2959C8.91725 27.438 9.05397 27.5748 9.1916 27.706L9.57031 30.9572C9.59 31.1264 9.64896 31.2887 9.74248 31.4311C9.83601 31.5736 9.96151 31.6922 10.109 31.7775C11.2344 32.4292 12.4412 32.9289 13.6979 33.2636C13.8635 33.3077 14.0371 33.3122 14.2047 33.2768C14.3724 33.2414 14.5294 33.1671 14.6631 33.0599L17.2047 31.031C17.4016 31.0365 17.5984 31.0365 17.7953 31.031L20.3438 33.0709C20.4776 33.1778 20.6346 33.2518 20.8023 33.287C20.9699 33.3221 21.1435 33.3174 21.309 33.2732C22.566 32.9388 23.7729 32.4386 24.8979 31.7857C25.0451 31.7002 25.1703 31.5815 25.2636 31.4391C25.3569 31.2967 25.4156 31.1345 25.4352 30.9654L25.7961 27.7224C25.9383 27.5875 26.075 27.4508 26.2063 27.3123L29.4574 26.9294C29.6267 26.9098 29.789 26.8508 29.9314 26.7573C30.0738 26.6638 30.1924 26.5382 30.2777 26.3908C30.9294 25.2654 31.4291 24.0586 31.7639 22.8019C31.8079 22.6363 31.8124 22.4627 31.777 22.295C31.7416 22.1274 31.6673 21.9704 31.5602 21.8367L29.5313 19.2951ZM27.3301 18.4064C27.3533 18.8016 27.3533 19.1979 27.3301 19.5931C27.3138 19.8637 27.3986 20.1307 27.568 20.3423L29.508 22.7664C29.2854 23.4738 29.0004 24.1601 28.6563 24.8171L25.5664 25.1671C25.2973 25.197 25.0489 25.3256 24.8691 25.5281C24.606 25.8241 24.3257 26.1044 24.0297 26.3675C23.8272 26.5473 23.6986 26.7957 23.6688 27.0648L23.3256 30.1519C22.6686 30.4962 21.9823 30.7812 21.2748 31.0037L18.8494 29.0636C18.6553 28.9086 18.4142 28.8242 18.1658 28.8244H18.1002C17.705 28.8476 17.3087 28.8476 16.9135 28.8244C16.6429 28.8081 16.3759 28.8929 16.1643 29.0623L13.7334 31.0037C13.0259 30.7811 12.3396 30.496 11.6826 30.1519L11.3326 27.0662C11.3027 26.7971 11.1741 26.5486 10.9717 26.3689C10.6757 26.1057 10.3954 25.8254 10.1322 25.5294C9.95249 25.327 9.70405 25.1984 9.43496 25.1685L6.34785 24.824C6.00358 24.167 5.71854 23.4807 5.4961 22.7732L7.43613 20.3478C7.60554 20.1362 7.69031 19.8692 7.67403 19.5986C7.65078 19.2034 7.65078 18.8071 7.67403 18.4119C7.69031 18.1413 7.60554 17.8743 7.43613 17.6626L5.4961 15.2332C5.71871 14.5257 6.00375 13.8394 6.34785 13.1824L9.4336 12.8324C9.70268 12.8025 9.95112 12.6739 10.1309 12.4714C10.394 12.1755 10.6743 11.8952 10.9703 11.632C11.1736 11.4521 11.3027 11.2031 11.3326 10.9334L11.6758 7.84761C12.3327 7.50334 13.019 7.21829 13.7266 6.99585L16.152 8.93589C16.3636 9.10529 16.6306 9.19007 16.9012 9.17378C17.2964 9.15054 17.6927 9.15054 18.0879 9.17378C18.3585 9.19007 18.6255 9.10529 18.8371 8.93589L21.2666 6.99585C21.9741 7.21846 22.6604 7.5035 23.3174 7.84761L23.6674 10.9334C23.6973 11.2024 23.8259 11.4509 24.0283 11.6306C24.3243 11.8938 24.6046 12.1741 24.8678 12.4701C25.0475 12.6725 25.296 12.8011 25.565 12.831L28.6522 13.1742C28.9964 13.8311 29.2815 14.5174 29.5039 15.225L27.5639 17.6503C27.3928 17.8638 27.308 18.1335 27.326 18.4064H27.3301Z" fill="#8AA5FF"/>
</svg>
