<svg width="16" height="16" viewBox="0 0 16 16" fill="none" xmlns="http://www.w3.org/2000/svg">
<path d="M12.8537 3.85249L3.85374 12.8525C3.75992 12.9463 3.63268 12.999 3.49999 12.999C3.36731 12.999 3.24006 12.9463 3.14624 12.8525C3.05242 12.7587 2.99972 12.6314 2.99972 12.4987C2.99972 12.3661 3.05242 12.2388 3.14624 12.145L12.1462 3.14499C12.24 3.05116 12.3671 2.99842 12.4998 2.99837C12.6324 2.99831 12.7596 3.05094 12.8534 3.14467C12.9473 3.23841 13 3.36558 13.0001 3.4982C13.0001 3.63083 12.9475 3.75804 12.8537 3.85186V3.85249ZM3.15874 6.33999C2.7368 5.91796 2.49979 5.3456 2.49985 4.74883C2.49991 4.15205 2.73703 3.57974 3.15906 3.1578C3.58108 2.73585 4.15344 2.49884 4.75021 2.4989C5.34699 2.49896 5.9193 2.73608 6.34124 3.15811C6.76319 3.58014 7.0002 4.15249 7.00014 4.74927C7.00008 5.34604 6.76296 5.91835 6.34093 6.3403C5.91891 6.76224 5.34655 6.99925 4.74977 6.99919C4.153 6.99914 3.58069 6.76201 3.15874 6.33999ZM3.49999 4.74999C3.50016 4.95552 3.55099 5.15783 3.64801 5.33903C3.74502 5.52022 3.88522 5.6747 4.05618 5.78877C4.22715 5.90285 4.4236 5.97302 4.62815 5.99305C4.83271 6.01308 5.03904 5.98237 5.22889 5.90363C5.41874 5.82488 5.58624 5.70055 5.71657 5.54162C5.84689 5.38269 5.93602 5.19408 5.97605 4.99249C6.01608 4.79089 6.00579 4.58254 5.94609 4.38587C5.88638 4.1892 5.7791 4.0103 5.63374 3.86499C5.45885 3.69015 5.23603 3.57111 4.99348 3.52294C4.75092 3.47478 4.49952 3.49963 4.2711 3.59438C4.04267 3.68912 3.84748 3.84949 3.71022 4.05519C3.57296 4.2609 3.4998 4.50269 3.49999 4.74999ZM13.5 11.25C13.4999 11.7705 13.3193 12.2749 12.989 12.6772C12.6586 13.0795 12.199 13.3549 11.6885 13.4563C11.1779 13.5578 10.648 13.479 10.1889 13.2336C9.72992 12.9881 9.3702 12.5911 9.1711 12.1101C8.97199 11.6291 8.9458 11.094 9.097 10.5959C9.2482 10.0978 9.56743 9.66755 10.0003 9.37843C10.4332 9.08931 10.9529 8.95923 11.4709 9.01034C11.9889 9.06145 12.4732 9.2906 12.8412 9.65873C13.0508 9.86722 13.217 10.1152 13.33 10.3884C13.4431 10.6615 13.5009 10.9544 13.5 11.25ZM12.5 11.25C12.5001 10.9608 12.3998 10.6805 12.2164 10.4569C12.033 10.2333 11.7777 10.0803 11.4941 10.0238C11.2105 9.96731 10.916 10.0109 10.661 10.1472C10.4059 10.2835 10.206 10.504 10.0952 10.7712C9.98451 11.0383 9.96985 11.3356 10.0538 11.6124C10.1377 11.8891 10.3149 12.1282 10.5554 12.2889C10.7958 12.4496 11.0845 12.522 11.3723 12.4937C11.6601 12.4654 11.9292 12.3382 12.1337 12.1337C12.2502 12.018 12.3425 11.8802 12.4054 11.7285C12.4682 11.5768 12.5004 11.4142 12.5 11.25Z" fill="#A1B8FE"/>
</svg>
